<svg id="svg" version="1.1" xmlns="http://www.w3.org/2000/svg" xmlns:xlink="http://www.w3.org/1999/xlink" width="400" height="390.2040816326531" viewBox="0, 0, 400,390.2040816326531"><g id="svgg"><path id="path0" d="M188.785 0.276 C 189.270 0.369,189.973 0.366,190.346 0.268 C 190.719 0.170,190.322 0.094,189.463 0.098 C 188.605 0.103,188.300 0.183,188.785 0.276 M209.858 0.276 C 210.344 0.369,211.046 0.366,211.419 0.268 C 211.792 0.170,211.395 0.094,210.537 0.098 C 209.678 0.103,209.373 0.183,209.858 0.276 M267.317 11.512 C 269.099 12.198,269.800 12.188,268.293 11.498 C 267.649 11.203,266.859 10.967,266.537 10.974 C 266.215 10.981,266.566 11.223,267.317 11.512 M121.951 15.189 C 120.838 15.709,120.642 15.906,121.268 15.876 C 121.751 15.853,122.146 15.685,122.146 15.504 C 122.146 15.322,122.310 15.274,122.510 15.398 C 122.709 15.521,122.985 15.441,123.122 15.220 C 123.259 14.998,123.534 14.918,123.734 15.041 C 123.934 15.165,124.098 15.080,124.098 14.852 C 124.098 14.289,123.767 14.340,121.951 15.189 M277.073 15.181 C 277.073 15.375,277.600 15.717,278.244 15.942 C 279.668 16.438,279.808 15.914,278.421 15.282 C 277.224 14.737,277.073 14.726,277.073 15.181 M119.036 16.375 C 118.720 16.575,118.563 16.840,118.687 16.964 C 118.995 17.271,120.195 16.781,120.195 16.348 C 120.195 15.904,119.765 15.914,119.036 16.375 M279.805 16.348 C 279.805 16.781,281.005 17.271,281.313 16.964 C 281.437 16.840,281.280 16.575,280.964 16.375 C 280.235 15.914,279.805 15.904,279.805 16.348 M112.390 19.707 C 109.068 21.447,109.596 21.447,113.225 19.707 C 114.793 18.956,115.817 18.350,115.501 18.360 C 115.185 18.371,113.785 18.977,112.390 19.707 M286.439 19.512 C 287.620 20.136,288.761 20.646,288.976 20.646 C 289.190 20.646,288.400 20.136,287.220 19.512 C 286.039 18.889,284.898 18.378,284.683 18.378 C 284.468 18.378,285.259 18.889,286.439 19.512 M105.148 23.207 C 104.731 23.522,104.595 23.786,104.846 23.792 C 105.588 23.813,106.537 23.358,106.537 22.983 C 106.537 22.471,106.008 22.557,105.148 23.207 M293.964 23.191 C 294.270 23.497,295.117 24.025,295.846 24.364 C 296.574 24.704,297.741 25.348,298.439 25.795 C 299.137 26.242,299.707 26.433,299.707 26.218 C 299.707 25.867,294.241 22.634,293.649 22.634 C 293.516 22.634,293.658 22.885,293.964 23.191 M102.537 24.612 C 100.998 25.424,100.726 25.756,101.598 25.756 C 101.886 25.756,102.633 25.317,103.256 24.781 C 104.610 23.617,104.479 23.587,102.537 24.612 M304.117 29.074 C 305.362 29.825,306.503 30.435,306.654 30.430 C 307.067 30.417,302.693 27.726,302.244 27.717 C 302.029 27.713,302.872 28.324,304.117 29.074 M94.959 29.196 C 94.064 29.772,93.186 30.398,93.008 30.586 C 92.580 31.037,94.708 29.911,96.195 28.899 C 97.932 27.718,96.850 27.977,94.959 29.196 M91.008 31.665 C 90.301 32.117,89.808 32.573,89.912 32.677 C 90.103 32.867,92.488 31.312,92.488 30.998 C 92.488 30.737,92.382 30.785,91.008 31.665 M310.634 33.171 C 310.634 33.385,310.801 33.561,311.004 33.561 C 311.208 33.561,311.848 34.000,312.427 34.537 C 313.563 35.589,314.238 35.808,313.930 35.024 C 313.557 34.074,310.634 32.430,310.634 33.171 M86.222 34.829 C 85.476 35.527,84.430 36.418,83.897 36.810 C 82.941 37.512,82.944 37.513,84.098 36.842 C 86.503 35.443,88.195 34.227,88.195 33.899 C 88.195 33.268,87.581 33.557,86.222 34.829 M314.569 36.034 C 315.408 36.715,318.439 38.628,318.439 38.477 C 318.439 38.221,315.066 35.902,314.694 35.902 C 314.536 35.902,314.480 35.962,314.569 36.034 M319.610 39.440 C 322.176 41.606,322.913 42.145,323.295 42.132 C 323.824 42.114,321.773 40.412,320.000 39.398 L 318.634 38.616 319.610 39.440 M77.659 40.976 C 76.907 41.608,76.488 42.130,76.728 42.136 C 76.967 42.142,77.757 41.622,78.484 40.982 C 80.196 39.473,79.451 39.467,77.659 40.976 M73.756 44.384 L 72.000 46.199 74.032 44.660 C 75.914 43.236,76.522 42.513,75.805 42.553 C 75.644 42.562,74.722 43.386,73.756 44.384 M324.490 43.319 C 324.880 43.750,325.283 44.018,325.387 43.914 C 325.649 43.652,324.675 42.537,324.184 42.537 C 323.963 42.537,324.100 42.889,324.490 43.319 M70.190 47.207 C 69.683 47.629,69.461 47.980,69.696 47.987 C 69.931 47.994,70.441 47.649,70.829 47.220 C 71.733 46.221,71.381 46.214,70.190 47.207 M329.171 47.220 C 329.559 47.649,330.053 48.000,330.267 48.000 C 330.482 48.000,330.340 47.649,329.951 47.220 C 329.563 46.790,329.069 46.439,328.855 46.439 C 328.640 46.439,328.782 46.790,329.171 47.220 M67.101 49.805 C 66.289 50.659,66.066 51.060,66.537 50.816 C 67.528 50.304,69.335 48.390,68.828 48.390 C 68.618 48.390,67.841 49.027,67.101 49.805 M331.332 48.994 C 331.608 49.326,332.376 49.970,333.039 50.424 L 334.244 51.251 332.899 49.821 C 331.604 48.443,330.307 47.759,331.332 48.994 M58.215 58.391 C 54.496 62.120,51.572 65.171,51.718 65.171 C 52.075 65.171,65.315 51.912,65.125 51.744 C 65.043 51.670,61.933 54.661,58.215 58.391 M334.829 51.690 C 334.829 51.821,337.902 55.012,341.659 58.781 C 345.415 62.550,348.488 65.502,348.488 65.340 C 348.488 65.177,345.415 61.986,341.659 58.248 C 337.902 54.510,334.829 51.559,334.829 51.690 M49.638 67.238 C 48.363 68.553,47.904 69.572,48.994 68.668 C 49.638 68.133,51.273 65.951,51.030 65.951 C 50.950 65.951,50.324 66.530,49.638 67.238 M349.572 66.931 C 350.076 67.909,351.610 69.328,351.610 68.816 C 351.610 68.609,351.060 67.923,350.388 67.293 C 349.517 66.474,349.283 66.371,349.572 66.931 M46.848 70.737 L 45.947 72.000 47.050 70.939 C 47.657 70.355,48.063 69.786,47.952 69.675 C 47.840 69.564,47.344 70.042,46.848 70.737 M352.000 69.793 C 352.000 69.975,352.378 70.457,352.841 70.866 L 353.682 71.610 352.991 70.537 C 352.279 69.430,352.000 69.221,352.000 69.793 M354.702 73.105 C 355.696 74.199,355.910 74.334,355.890 73.854 C 355.883 73.693,355.401 73.224,354.817 72.812 L 353.756 72.063 354.702 73.105 M42.919 75.131 C 42.165 76.040,42.703 76.211,43.510 75.319 C 43.900 74.889,44.037 74.537,43.816 74.537 C 43.594 74.537,43.191 74.804,42.919 75.131 M356.490 75.319 C 356.880 75.750,357.283 76.018,357.387 75.914 C 357.649 75.652,356.675 74.537,356.184 74.537 C 355.963 74.537,356.100 74.889,356.490 75.319 M40.787 77.879 C 40.204 78.645,39.856 79.391,40.014 79.538 C 40.172 79.685,40.375 79.602,40.464 79.353 C 40.553 79.105,40.968 78.507,41.386 78.025 C 42.078 77.227,42.372 76.488,41.998 76.488 C 41.916 76.488,41.371 77.114,40.787 77.879 M357.864 76.728 C 357.858 76.967,358.378 77.757,359.018 78.484 C 359.659 79.210,360.181 79.629,360.178 79.415 C 360.172 78.863,357.877 76.198,357.864 76.728 M37.129 83.220 C 36.496 84.132,35.434 85.480,34.769 86.217 C 33.556 87.560,33.275 88.195,33.893 88.195 C 34.075 88.195,35.218 86.702,36.432 84.878 C 38.680 81.500,39.227 80.200,37.129 83.220 M362.630 83.481 C 363.329 84.536,363.962 85.339,364.037 85.264 C 364.196 85.105,361.805 81.561,361.539 81.561 C 361.441 81.561,361.931 82.425,362.630 83.481 M98.439 83.011 C 99.029 83.101,99.995 83.101,100.585 83.011 C 101.176 82.922,100.693 82.849,99.512 82.849 C 98.332 82.849,97.849 82.922,98.439 83.011 M299.227 83.015 C 299.928 83.101,300.982 83.100,301.568 83.011 C 302.154 82.922,301.580 82.850,300.293 82.853 C 299.005 82.855,298.525 82.928,299.227 83.015 M364.502 85.932 C 364.494 86.297,364.795 86.767,365.171 86.978 C 365.546 87.188,365.797 87.499,365.727 87.670 C 365.657 87.841,365.789 88.043,366.020 88.120 C 366.711 88.351,366.494 87.682,365.476 86.439 C 364.762 85.569,364.512 85.438,364.502 85.932 M122.146 88.544 C 122.146 88.976,123.347 89.466,123.654 89.159 C 123.778 89.035,123.622 88.770,123.306 88.570 C 122.576 88.109,122.146 88.099,122.146 88.544 M276.694 88.570 C 276.378 88.770,276.222 89.035,276.346 89.159 C 276.653 89.466,277.854 88.976,277.854 88.544 C 277.854 88.099,277.424 88.109,276.694 88.570 M269.463 92.139 C 265.177 94.456,265.364 94.644,269.765 92.442 C 273.220 90.714,273.385 90.613,273.138 90.388 C 273.049 90.306,271.395 91.094,269.463 92.139 M127.610 90.898 C 127.610 91.182,132.708 93.763,132.897 93.575 C 132.964 93.508,131.802 92.822,130.314 92.050 C 128.827 91.278,127.610 90.760,127.610 90.898 M29.896 93.845 C 27.482 97.822,27.602 98.140,30.066 94.294 C 31.149 92.604,31.958 91.145,31.865 91.052 C 31.772 90.959,30.886 92.216,29.896 93.845 M369.653 93.756 C 369.968 94.239,370.528 95.221,370.898 95.939 C 371.267 96.656,371.655 97.158,371.759 97.054 C 371.967 96.846,369.619 92.878,369.287 92.878 C 369.174 92.878,369.339 93.273,369.653 93.756 M263.707 95.052 C 262.248 95.844,262.337 96.174,263.805 95.415 C 264.449 95.082,264.976 94.726,264.976 94.624 C 264.976 94.373,264.934 94.387,263.707 95.052 M136.976 95.771 C 136.976 95.886,137.546 96.272,138.244 96.630 C 138.941 96.987,139.912 97.675,140.401 98.158 C 141.323 99.070,142.829 99.671,142.829 99.127 C 142.829 98.787,141.642 98.180,141.171 98.280 C 141.010 98.314,140.878 98.194,140.878 98.013 C 140.878 97.833,140.000 97.207,138.927 96.623 C 137.854 96.039,136.976 95.655,136.976 95.771 M260.293 97.048 C 259.327 97.620,258.429 98.248,258.298 98.443 C 258.167 98.639,257.907 98.770,257.722 98.736 C 257.537 98.701,257.318 98.877,257.235 99.125 C 257.063 99.641,259.374 98.555,260.293 97.687 C 260.615 97.384,261.229 96.885,261.659 96.580 C 262.936 95.671,262.177 95.932,260.293 97.048 M194.841 97.068 C 195.867 97.148,197.448 97.147,198.353 97.066 C 199.259 96.984,198.420 96.918,196.488 96.919 C 194.556 96.920,193.815 96.987,194.841 97.068 M201.865 97.068 C 202.891 97.148,204.472 97.147,205.378 97.066 C 206.283 96.984,205.444 96.918,203.512 96.919 C 201.580 96.920,200.839 96.987,201.865 97.068 M308.683 97.561 C 308.683 98.289,308.787 98.393,309.151 98.029 C 309.515 97.665,309.515 97.457,309.151 97.093 C 308.787 96.728,308.683 96.833,308.683 97.561 M186.146 97.561 C 186.146 97.776,186.673 97.951,187.317 97.951 C 187.961 97.951,188.488 97.776,188.488 97.561 C 188.488 97.346,187.961 97.171,187.317 97.171 C 186.673 97.171,186.146 97.346,186.146 97.561 M211.512 97.561 C 211.512 97.776,212.039 97.951,212.683 97.951 C 213.327 97.951,213.854 97.776,213.854 97.561 C 213.854 97.346,213.327 97.171,212.683 97.171 C 212.039 97.171,211.512 97.346,211.512 97.561 M181.268 97.951 C 181.132 98.173,181.459 98.341,182.026 98.341 C 182.575 98.341,183.024 98.166,183.024 97.951 C 183.024 97.737,182.684 97.561,182.267 97.561 C 181.850 97.561,181.401 97.737,181.268 97.951 M216.976 97.951 C 216.976 98.166,217.327 98.341,217.756 98.341 C 218.185 98.341,218.537 98.166,218.537 97.951 C 218.537 97.737,218.185 97.561,217.756 97.561 C 217.327 97.561,216.976 97.737,216.976 97.951 M177.756 98.341 C 177.619 98.564,177.955 98.732,178.537 98.732 C 179.118 98.732,179.454 98.564,179.317 98.341 C 179.184 98.127,178.833 97.951,178.537 97.951 C 178.240 97.951,177.889 98.127,177.756 98.341 M221.073 98.341 C 220.941 98.556,221.204 98.732,221.659 98.732 C 222.113 98.732,222.377 98.556,222.244 98.341 C 222.111 98.127,221.848 97.951,221.659 97.951 C 221.469 97.951,221.206 98.127,221.073 98.341 M174.244 98.732 C 174.111 98.946,174.364 99.122,174.806 99.122 C 175.248 99.122,175.610 98.946,175.610 98.732 C 175.610 98.517,175.357 98.341,175.047 98.341 C 174.738 98.341,174.377 98.517,174.244 98.732 M224.390 98.732 C 224.390 98.946,224.654 99.122,224.976 99.122 C 225.298 99.122,225.561 98.946,225.561 98.732 C 225.561 98.517,225.298 98.341,224.976 98.341 C 224.654 98.341,224.390 98.517,224.390 98.732 M171.512 99.122 C 171.380 99.337,171.633 99.512,172.075 99.512 C 172.516 99.512,172.878 99.337,172.878 99.122 C 172.878 98.907,172.625 98.732,172.316 98.732 C 172.006 98.732,171.645 98.907,171.512 99.122 M309.073 99.707 C 309.073 100.029,309.249 100.293,309.463 100.293 C 309.678 100.293,309.854 100.029,309.854 99.707 C 309.854 99.385,309.678 99.122,309.463 99.122 C 309.249 99.122,309.073 99.385,309.073 99.707 M24.426 102.843 C 22.915 105.593,22.854 105.756,23.355 105.756 C 23.538 105.756,23.975 105.098,24.329 104.293 C 24.682 103.488,25.339 102.259,25.790 101.561 C 26.240 100.863,26.433 100.293,26.218 100.293 C 26.003 100.293,25.197 101.440,24.426 102.843 M374.205 101.561 C 374.652 102.259,375.281 103.388,375.601 104.071 C 376.122 105.181,376.976 106.130,376.976 105.597 C 376.976 105.037,374.120 100.293,373.782 100.293 C 373.567 100.293,373.758 100.863,374.205 101.561 M252.293 102.244 C 251.005 103.101,250.086 103.803,250.250 103.804 C 250.584 103.805,254.829 101.042,254.829 100.823 C 254.829 100.573,254.665 100.665,252.293 102.244 M146.341 101.562 C 146.341 101.809,149.362 103.805,149.737 103.805 C 149.897 103.805,149.681 103.568,149.258 103.279 C 147.396 102.008,146.341 101.387,146.341 101.562 M309.463 102.049 C 309.463 102.371,309.639 102.634,309.854 102.634 C 310.068 102.634,310.244 102.371,310.244 102.049 C 310.244 101.727,310.068 101.463,309.854 101.463 C 309.639 101.463,309.463 101.727,309.463 102.049 M89.366 104.390 C 89.366 104.712,89.541 104.976,89.756 104.976 C 89.971 104.976,90.146 104.712,90.146 104.390 C 90.146 104.068,89.971 103.805,89.756 103.805 C 89.541 103.805,89.366 104.068,89.366 104.390 M309.854 105.171 C 309.854 105.493,310.029 105.756,310.244 105.756 C 310.459 105.756,310.634 105.493,310.634 105.171 C 310.634 104.849,310.459 104.585,310.244 104.585 C 310.029 104.585,309.854 104.849,309.854 105.171 M88.976 109.073 C 88.976 109.824,89.151 110.439,89.366 110.439 C 89.580 110.439,89.756 109.824,89.756 109.073 C 89.756 108.322,89.580 107.707,89.366 107.707 C 89.151 107.707,88.976 108.322,88.976 109.073 M310.244 113.389 C 310.244 116.037,310.383 117.423,310.634 117.268 C 310.852 117.134,311.024 115.313,311.024 113.148 C 311.024 110.822,310.868 109.268,310.634 109.268 C 310.399 109.268,310.244 110.902,310.244 113.389 M19.586 112.604 C 18.410 115.024,18.541 115.363,19.752 113.035 C 20.294 111.995,20.670 111.076,20.588 110.995 C 20.507 110.913,20.056 111.637,19.586 112.604 M379.352 111.024 C 379.352 111.239,379.775 112.205,380.293 113.171 C 380.810 114.137,381.233 114.751,381.233 114.537 C 381.233 114.322,380.810 113.356,380.293 112.390 C 379.775 111.424,379.352 110.810,379.352 111.024 M88.976 117.050 C 88.976 117.681,89.151 118.306,89.366 118.439 C 89.598 118.583,89.756 118.118,89.756 117.291 C 89.756 116.527,89.580 115.902,89.366 115.902 C 89.151 115.902,88.976 116.419,88.976 117.050 M381.665 116.195 C 381.675 116.729,382.393 117.640,382.622 117.410 C 382.930 117.103,382.440 115.902,382.007 115.902 C 381.815 115.902,381.661 116.034,381.665 116.195 M16.228 119.275 C 15.901 120.127,16.335 120.522,16.796 119.794 C 17.257 119.064,17.267 118.634,16.822 118.634 C 16.631 118.634,16.363 118.923,16.228 119.275 M383.106 119.415 C 383.219 119.844,383.466 120.195,383.655 120.195 C 384.063 120.195,384.077 120.071,383.763 119.251 C 383.419 118.355,382.865 118.493,383.106 119.415 M309.854 120.976 C 309.854 121.405,310.029 121.756,310.244 121.756 C 310.459 121.756,310.634 121.405,310.634 120.976 C 310.634 120.546,310.459 120.195,310.244 120.195 C 310.029 120.195,309.854 120.546,309.854 120.976 M89.366 121.538 C 89.366 121.847,89.541 122.209,89.756 122.341 C 89.971 122.474,90.146 122.221,90.146 121.779 C 90.146 121.337,89.971 120.976,89.756 120.976 C 89.541 120.976,89.366 121.229,89.366 121.538 M307.757 131.614 C 307.438 132.804,307.455 133.261,307.805 132.911 C 307.966 132.750,308.100 132.501,308.104 132.358 C 308.107 132.215,308.241 131.890,308.403 131.637 C 308.564 131.383,308.537 131.078,308.343 130.958 C 308.150 130.838,307.886 131.134,307.757 131.614 M307.122 136.842 C 307.122 137.050,307.672 137.736,308.343 138.366 C 309.215 139.184,309.449 139.288,309.160 138.727 C 308.656 137.750,307.122 136.331,307.122 136.842 M91.317 137.951 C 90.815 138.486,90.491 139.012,90.599 139.119 C 90.706 139.226,91.205 138.876,91.707 138.341 C 92.210 137.807,92.533 137.281,92.426 137.174 C 92.319 137.066,91.820 137.416,91.317 137.951 M309.657 140.095 C 309.789 140.309,310.282 140.686,310.753 140.933 C 311.604 141.379,311.605 141.376,310.866 140.545 C 310.122 139.706,309.206 139.366,309.657 140.095 M88.976 140.683 C 88.705 141.009,88.662 141.268,88.880 141.268 C 89.095 141.268,89.489 141.005,89.756 140.683 C 90.027 140.356,90.069 140.098,89.852 140.098 C 89.637 140.098,89.243 140.361,88.976 140.683 M391.024 140.683 C 391.024 141.005,391.200 141.268,391.415 141.268 C 391.629 141.268,391.805 141.005,391.805 140.683 C 391.805 140.361,391.629 140.098,391.415 140.098 C 391.200 140.098,391.024 140.361,391.024 140.683 M86.952 143.504 C 84.206 147.684,84.127 148.214,86.808 144.469 C 87.622 143.333,88.205 142.319,88.104 142.218 C 88.002 142.116,87.484 142.695,86.952 143.504 M312.585 143.421 C 312.585 143.814,315.438 147.911,315.600 147.750 C 315.690 147.660,315.112 146.603,314.315 145.403 C 312.957 143.358,312.585 142.932,312.585 143.421 M82.004 151.610 C 81.733 152.361,81.363 152.976,81.184 152.976 C 81.004 152.976,80.673 153.502,80.449 154.146 C 79.506 156.852,81.126 154.602,83.049 150.537 C 83.125 150.376,83.032 150.244,82.843 150.244 C 82.653 150.244,82.276 150.859,82.004 151.610 M316.878 150.458 C 316.878 150.819,318.057 152.976,318.254 152.976 C 318.664 152.976,318.403 151.825,317.872 151.294 C 317.561 150.982,317.414 150.618,317.547 150.485 C 317.680 150.353,317.584 150.244,317.333 150.244 C 317.083 150.244,316.878 150.340,316.878 150.458 M326.256 178.907 C 326.247 179.747,326.361 179.942,326.675 179.628 C 326.983 179.319,326.987 178.993,326.686 178.477 C 326.319 177.845,326.266 177.898,326.256 178.907 M72.828 181.786 C 72.655 182.285,72.618 182.797,72.745 182.924 C 73.149 183.328,73.434 182.732,73.285 181.790 L 73.142 180.878 72.828 181.786 M326.640 182.927 C 326.637 183.624,326.810 184.195,327.024 184.195 C 327.520 184.195,327.520 183.011,327.024 182.244 C 326.737 181.800,326.645 181.964,326.640 182.927 M0.091 188.488 C 0.091 189.239,0.171 189.546,0.269 189.171 C 0.367 188.795,0.367 188.180,0.269 187.805 C 0.171 187.429,0.091 187.737,0.091 188.488 M399.708 188.683 C 399.713 189.541,399.792 189.847,399.886 189.361 C 399.979 188.876,399.976 188.173,399.878 187.800 C 399.780 187.427,399.704 187.824,399.708 188.683 M72.702 190.439 C 72.702 191.620,72.775 192.102,72.865 191.512 C 72.954 190.922,72.954 189.956,72.865 189.366 C 72.775 188.776,72.702 189.259,72.702 190.439 M326.640 199.317 C 326.645 200.406,326.743 200.631,327.024 200.195 C 327.521 199.426,327.521 197.854,327.024 197.854 C 326.810 197.854,326.637 198.512,326.640 199.317 M72.803 199.769 C 72.682 199.964,72.749 200.534,72.950 201.037 C 73.293 201.892,73.318 201.869,73.341 200.683 C 73.366 199.401,73.202 199.122,72.803 199.769 M326.250 204.976 C 326.255 205.686,326.328 205.742,326.634 205.268 C 327.123 204.512,327.123 204.098,326.634 204.098 C 326.420 204.098,326.247 204.493,326.250 204.976 M72.982 205.171 C 72.999 206.026,73.744 206.594,73.750 205.756 C 73.753 205.273,73.580 204.878,73.366 204.878 C 73.151 204.878,72.978 205.010,72.982 205.171 M399.721 211.707 C 399.724 212.780,399.800 213.173,399.890 212.580 C 399.979 211.987,399.977 211.109,399.884 210.629 C 399.792 210.149,399.718 210.634,399.721 211.707 M0.106 211.902 C 0.106 212.868,0.182 213.263,0.275 212.780 C 0.368 212.298,0.368 211.507,0.275 211.024 C 0.182 210.541,0.106 210.937,0.106 211.902 M79.616 234.829 C 79.627 235.363,80.344 236.274,80.573 236.045 C 80.881 235.737,80.391 234.537,79.958 234.537 C 79.767 234.537,79.612 234.668,79.616 234.829 M319.057 235.958 C 318.730 236.810,319.164 237.205,319.625 236.477 C 320.086 235.747,320.096 235.317,319.652 235.317 C 319.460 235.317,319.192 235.606,319.057 235.958 M80.794 237.096 C 80.787 237.538,81.038 238.240,81.353 238.657 C 82.126 239.679,82.136 238.615,81.366 237.268 C 80.856 236.376,80.807 236.362,80.794 237.096 M318.286 237.886 C 317.964 238.724,317.983 238.829,318.462 238.829 C 318.689 238.829,318.767 238.654,318.634 238.439 C 318.501 238.224,318.579 238.049,318.806 238.049 C 319.034 238.049,319.220 237.873,319.220 237.659 C 319.220 237.041,318.547 237.205,318.286 237.886 M83.522 242.927 C 83.522 243.141,84.129 244.371,84.871 245.659 C 85.613 246.946,86.220 247.824,86.220 247.610 C 86.220 247.395,85.613 246.166,84.871 244.878 C 84.129 243.590,83.522 242.712,83.522 242.927 M314.580 245.702 C 313.914 246.932,313.437 248.006,313.521 248.090 C 313.604 248.173,314.217 247.235,314.883 246.005 C 315.550 244.776,316.026 243.701,315.943 243.618 C 315.859 243.534,315.246 244.472,314.580 245.702 M87.805 250.625 C 87.805 250.796,88.713 252.022,90.775 254.634 C 91.113 255.063,91.540 255.673,91.723 255.989 C 91.906 256.304,92.172 256.446,92.315 256.303 C 92.458 256.160,91.901 255.199,91.076 254.168 C 89.367 252.030,87.805 250.338,87.805 250.625 M308.753 254.283 C 307.826 255.484,307.182 256.580,307.322 256.720 C 307.462 256.860,307.822 256.623,308.124 256.195 C 308.425 255.766,309.069 254.908,309.555 254.289 C 310.765 252.749,311.121 252.097,310.751 252.099 C 310.579 252.100,309.680 253.083,308.753 254.283 M92.488 256.903 C 92.488 256.970,93.059 257.540,93.756 258.171 L 95.024 259.317 93.878 258.049 C 92.810 256.867,92.488 256.601,92.488 256.903 M7.805 258.146 C 7.805 258.468,7.980 258.732,8.195 258.732 C 8.410 258.732,8.585 258.468,8.585 258.146 C 8.585 257.824,8.410 257.561,8.195 257.561 C 7.980 257.561,7.805 257.824,7.805 258.146 M302.647 261.268 C 298.694 264.998,297.560 266.744,301.106 263.642 C 302.764 262.191,307.045 257.523,306.664 257.580 C 306.594 257.591,304.786 259.250,302.647 261.268 M391.415 258.146 C 391.415 258.468,391.590 258.732,391.805 258.732 C 392.020 258.732,392.195 258.468,392.195 258.146 C 392.195 257.824,392.020 257.561,391.805 257.561 C 391.590 257.561,391.415 257.824,391.415 258.146 M99.122 263.740 C 99.122 264.017,100.946 265.584,103.021 267.090 C 103.341 267.322,102.727 266.591,101.655 265.466 C 99.780 263.496,99.122 263.047,99.122 263.740 M105.756 268.993 C 105.756 269.275,111.287 272.843,111.458 272.672 C 111.549 272.581,110.522 271.806,109.177 270.949 C 106.126 269.004,105.756 268.793,105.756 268.993 M289.616 271.537 C 288.037 272.527,286.950 273.406,287.200 273.489 C 287.450 273.573,287.966 273.360,288.346 273.016 C 288.726 272.672,289.243 272.390,289.494 272.390 C 289.746 272.390,289.951 272.226,289.951 272.026 C 289.951 271.826,290.259 271.560,290.634 271.434 C 291.482 271.152,293.412 269.665,292.878 269.706 C 292.663 269.723,291.196 270.547,289.616 271.537 M14.251 275.902 C 14.714 277.503,15.196 278.199,15.195 277.268 C 15.195 276.839,14.919 276.137,14.581 275.707 C 13.986 274.949,13.976 274.955,14.251 275.902 M117.073 276.098 C 118.039 276.615,119.005 277.038,119.220 277.038 C 119.434 277.038,118.820 276.615,117.854 276.098 C 116.888 275.580,115.922 275.157,115.707 275.157 C 115.493 275.157,116.107 275.580,117.073 276.098 M281.366 276.293 C 280.185 276.916,279.395 277.427,279.610 277.427 C 279.824 277.427,280.966 276.916,282.146 276.293 C 283.327 275.669,284.117 275.159,283.902 275.159 C 283.688 275.159,282.546 275.669,281.366 276.293 M385.261 276.001 C 385.024 276.483,384.733 277.317,384.615 277.854 C 384.497 278.390,384.763 278.067,385.206 277.136 C 385.649 276.204,385.939 275.370,385.852 275.283 C 385.764 275.195,385.498 275.518,385.261 276.001 M15.763 279.642 C 15.893 279.981,16.000 280.332,16.000 280.422 C 16.000 280.512,16.159 280.585,16.354 280.585 C 16.548 280.585,16.616 280.234,16.503 279.805 C 16.391 279.376,16.125 279.024,15.913 279.024 C 15.700 279.024,15.633 279.302,15.763 279.642 M54.816 279.396 C 54.044 279.709,52.751 280.976,53.203 280.976 C 53.327 280.976,54.076 280.537,54.866 280.000 C 56.311 279.020,56.292 278.797,54.816 279.396 M273.366 279.623 C 272.390 280.094,272.358 280.148,273.171 279.949 C 274.276 279.679,275.519 279.045,274.927 279.054 C 274.712 279.057,274.010 279.313,273.366 279.623 M383.497 279.805 C 383.384 280.234,383.452 280.585,383.646 280.585 C 383.841 280.585,384.000 280.512,384.000 280.422 C 384.000 280.332,384.107 279.981,384.237 279.642 C 384.367 279.302,384.300 279.024,384.087 279.024 C 383.875 279.024,383.609 279.376,383.497 279.805 M74.732 281.967 C 75.805 282.536,76.859 283.220,77.073 283.486 C 77.753 284.329,80.780 286.077,80.780 285.627 C 80.780 285.389,80.429 285.103,80.000 284.991 C 79.571 284.879,79.220 284.640,79.220 284.461 C 79.220 284.110,74.845 281.567,73.561 281.172 C 73.132 281.040,73.659 281.398,74.732 281.967 M265.268 282.025 C 264.434 282.243,264.360 282.927,265.171 282.927 C 265.493 282.927,265.756 282.757,265.756 282.549 C 265.756 282.341,266.020 282.272,266.341 282.395 C 266.663 282.519,266.927 282.426,266.927 282.188 C 266.927 281.748,266.491 281.706,265.268 282.025 M133.854 282.537 C 133.854 282.751,134.117 282.927,134.439 282.927 C 134.761 282.927,135.024 282.751,135.024 282.537 C 135.024 282.322,134.761 282.146,134.439 282.146 C 134.117 282.146,133.854 282.322,133.854 282.537 M263.024 282.927 C 263.024 283.141,263.288 283.317,263.610 283.317 C 263.932 283.317,264.195 283.141,264.195 282.927 C 264.195 282.712,263.932 282.537,263.610 282.537 C 263.288 282.537,263.024 282.712,263.024 282.927 M17.984 283.902 C 17.984 284.117,18.320 284.907,18.732 285.659 C 19.143 286.410,19.479 286.849,19.479 286.634 C 19.479 286.420,19.143 285.629,18.732 284.878 C 18.320 284.127,17.984 283.688,17.984 283.902 M53.854 284.293 C 54.121 284.615,54.515 284.878,54.730 284.878 C 54.947 284.878,54.905 284.619,54.634 284.293 C 54.367 283.971,53.973 283.707,53.758 283.707 C 53.540 283.707,53.583 283.966,53.854 284.293 M380.938 285.511 C 379.756 287.944,380.047 288.034,381.328 285.631 C 381.893 284.573,382.233 283.707,382.084 283.707 C 381.936 283.707,381.420 284.519,380.938 285.511 M56.976 287.240 C 59.112 289.069,60.109 289.430,58.146 287.663 C 57.180 286.794,56.215 286.079,56.000 286.076 C 55.785 286.073,56.224 286.596,56.976 287.240 M81.719 286.772 C 82.545 287.703,82.732 287.788,82.732 287.233 C 82.732 287.026,82.337 286.649,81.854 286.396 C 80.980 285.938,80.980 285.940,81.719 286.772 M163.003 288.803 C 162.870 289.313,162.959 289.550,163.250 289.453 C 163.812 289.266,164.104 288.000,163.586 288.000 C 163.381 288.000,163.119 288.361,163.003 288.803 M235.707 288.309 C 235.707 288.735,239.161 292.091,239.377 291.875 C 239.551 291.701,236.211 288.000,235.881 288.000 C 235.785 288.000,235.707 288.139,235.707 288.309 M83.902 288.512 C 83.902 288.580,84.473 289.150,85.171 289.781 L 86.439 290.927 85.293 289.659 C 84.224 288.476,83.902 288.211,83.902 288.512 M62.120 290.752 C 62.319 291.348,64.780 292.834,64.780 292.358 C 64.780 291.957,62.752 290.341,62.249 290.341 C 62.103 290.341,62.045 290.526,62.120 290.752 M160.517 291.610 C 159.101 293.183,156.211 297.756,156.632 297.756 C 156.727 297.756,157.242 297.010,157.777 296.098 C 158.313 295.185,159.486 293.605,160.384 292.585 C 161.282 291.566,161.858 290.732,161.662 290.732 C 161.467 290.732,160.951 291.127,160.517 291.610 M87.278 292.499 C 87.539 293.179,88.976 294.059,88.976 293.538 C 88.976 293.156,87.690 291.902,87.299 291.902 C 87.161 291.902,87.152 292.171,87.278 292.499 M22.260 292.793 C 22.224 293.482,24.330 297.131,24.491 296.660 C 24.587 296.380,24.406 295.853,24.089 295.490 C 23.772 295.126,23.234 294.302,22.894 293.659 C 22.554 293.015,22.268 292.625,22.260 292.793 M376.463 294.707 C 375.861 295.786,375.455 296.755,375.560 296.861 C 375.666 296.967,376.215 296.140,376.780 295.024 C 378.113 292.395,377.883 292.165,376.463 294.707 M68.419 296.229 C 70.100 297.965,71.565 299.297,71.674 299.188 C 71.855 299.007,66.209 293.401,65.615 293.170 C 65.475 293.116,66.737 294.492,68.419 296.229 M241.177 294.319 C 241.169 294.673,242.759 297.366,242.975 297.366 C 243.067 297.366,242.880 296.883,242.561 296.293 C 241.766 294.824,241.184 293.995,241.177 294.319 M25.427 299.100 C 25.666 299.625,26.110 300.150,26.413 300.266 C 26.834 300.428,26.802 300.201,26.276 299.312 C 25.449 297.912,24.813 297.753,25.427 299.100 M373.944 298.927 C 373.674 299.359,373.626 299.707,373.837 299.707 C 374.046 299.707,374.404 299.356,374.634 298.927 C 374.864 298.498,374.912 298.146,374.742 298.146 C 374.571 298.146,374.212 298.498,373.944 298.927 M72.195 300.488 C 72.608 301.259,73.366 301.562,73.366 300.956 C 73.366 300.546,72.518 299.707,72.103 299.707 C 71.924 299.707,71.965 300.059,72.195 300.488 M93.659 301.463 C 93.659 301.927,96.502 305.561,96.865 305.561 C 97.275 305.561,96.882 304.967,95.317 303.228 C 94.834 302.691,94.439 302.031,94.439 301.760 C 94.439 301.490,94.263 301.268,94.049 301.268 C 93.834 301.268,93.659 301.356,93.659 301.463 M27.317 301.840 C 27.317 302.173,30.885 307.902,31.092 307.902 C 31.205 307.902,30.899 307.244,30.414 306.439 C 29.929 305.634,29.106 304.229,28.586 303.317 C 27.732 301.819,27.317 301.336,27.317 301.840 M154.190 302.873 C 153.949 303.562,153.821 304.195,153.904 304.278 C 153.988 304.362,154.253 303.866,154.493 303.176 C 154.734 302.486,154.862 301.854,154.779 301.770 C 154.695 301.687,154.430 302.183,154.190 302.873 M371.112 303.885 C 370.411 305.129,369.580 306.541,369.264 307.024 C 368.949 307.507,368.786 307.902,368.902 307.902 C 369.214 307.902,372.750 301.986,372.554 301.790 C 372.462 301.698,371.814 302.641,371.112 303.885 M76.325 306.244 C 78.342 309.699,78.826 310.440,78.828 310.071 C 78.830 309.597,75.741 304.390,75.458 304.390 C 75.340 304.390,75.730 305.224,76.325 306.244 M99.679 308.683 C 102.277 311.568,104.615 313.742,105.130 313.750 C 105.322 313.753,104.971 313.298,104.350 312.739 C 103.728 312.180,101.909 310.467,100.307 308.934 L 97.395 306.146 99.679 308.683 M32.822 311.014 C 33.617 312.429,34.137 313.112,36.688 316.098 C 37.147 316.634,36.948 316.195,36.247 315.122 C 35.546 314.049,34.830 313.112,34.657 313.041 C 34.483 312.969,34.341 312.662,34.341 312.358 C 34.341 312.054,34.166 311.805,33.951 311.805 C 33.737 311.805,33.561 311.541,33.561 311.220 C 33.561 310.898,33.385 310.634,33.171 310.634 C 32.956 310.634,32.780 310.371,32.780 310.049 C 32.780 309.727,32.594 309.463,32.365 309.463 C 32.137 309.463,32.342 310.161,32.822 311.014 M367.111 310.248 C 366.741 310.680,366.439 311.207,366.439 311.419 C 366.439 311.631,366.263 311.805,366.049 311.805 C 365.834 311.805,365.659 312.054,365.659 312.358 C 365.659 312.662,365.517 312.969,365.343 313.041 C 365.170 313.112,364.444 314.049,363.730 315.122 L 362.433 317.073 363.647 315.790 C 365.289 314.055,368.380 309.463,367.905 309.463 C 367.838 309.463,367.481 309.817,367.111 310.248 M151.415 311.220 C 151.415 311.541,151.590 311.805,151.805 311.805 C 152.020 311.805,152.195 311.541,152.195 311.220 C 152.195 310.898,152.020 310.634,151.805 310.634 C 151.590 310.634,151.415 310.898,151.415 311.220 M247.805 312.000 C 247.805 312.322,247.980 312.585,248.195 312.585 C 248.410 312.585,248.585 312.322,248.585 312.000 C 248.585 311.678,248.410 311.415,248.195 311.415 C 247.980 311.415,247.805 311.678,247.805 312.000 M151.232 313.090 C 151.065 313.475,151.037 313.899,151.171 314.033 C 151.568 314.429,151.887 313.873,151.705 313.104 C 151.543 312.422,151.522 312.421,151.232 313.090 M80.839 314.927 C 81.063 315.571,81.406 316.098,81.599 316.098 C 82.055 316.098,82.044 315.947,81.498 314.750 C 80.866 313.363,80.343 313.503,80.839 314.927 M108.098 315.510 C 108.098 315.773,112.048 317.741,112.223 317.566 C 112.303 317.486,111.407 316.949,110.233 316.373 C 109.059 315.797,108.098 315.408,108.098 315.510 M82.058 317.171 C 82.090 317.654,82.266 318.049,82.448 318.049 C 82.629 318.049,82.677 318.212,82.553 318.412 C 82.430 318.612,82.507 318.886,82.725 319.020 C 83.289 319.369,83.192 318.417,82.546 317.268 C 82.013 316.319,82.000 316.316,82.058 317.171 M113.171 317.983 C 113.493 318.182,114.195 318.462,114.732 318.606 C 115.410 318.787,115.529 318.756,115.122 318.505 C 114.800 318.306,114.098 318.026,113.561 317.882 C 112.883 317.701,112.764 317.732,113.171 317.983 M137.756 319.610 C 137.756 319.824,138.020 320.000,138.341 320.000 C 138.663 320.000,138.927 319.824,138.927 319.610 C 138.927 319.395,138.663 319.220,138.341 319.220 C 138.020 319.220,137.756 319.395,137.756 319.610 M119.415 320.000 C 119.415 320.215,119.678 320.390,120.000 320.390 C 120.322 320.390,120.585 320.215,120.585 320.000 C 120.585 319.785,120.322 319.610,120.000 319.610 C 119.678 319.610,119.415 319.785,119.415 320.000 M135.805 320.000 C 135.805 320.215,136.068 320.390,136.390 320.390 C 136.712 320.390,136.976 320.215,136.976 320.000 C 136.976 319.785,136.712 319.610,136.390 319.610 C 136.068 319.610,135.805 319.785,135.805 320.000 M121.756 320.390 C 121.756 320.605,122.107 320.780,122.537 320.780 C 122.966 320.780,123.317 320.605,123.317 320.390 C 123.317 320.176,122.966 320.000,122.537 320.000 C 122.107 320.000,121.756 320.176,121.756 320.390 M132.488 320.390 C 132.350 320.612,132.687 320.780,133.268 320.780 C 133.850 320.780,134.186 320.612,134.049 320.390 C 133.916 320.176,133.565 320.000,133.268 320.000 C 132.972 320.000,132.620 320.176,132.488 320.390 M83.512 320.536 C 83.512 320.957,85.062 323.902,85.284 323.902 C 85.391 323.902,85.103 323.156,84.643 322.244 C 83.738 320.450,83.512 320.109,83.512 320.536 M249.547 340.683 C 249.547 351.737,249.597 356.259,249.658 350.732 C 249.719 345.205,249.719 336.161,249.658 330.634 C 249.597 325.107,249.547 329.629,249.547 340.683 M40.982 322.146 C 40.989 322.678,43.586 325.708,43.827 325.463 C 43.932 325.356,43.334 324.478,42.498 323.512 C 41.662 322.546,40.980 321.932,40.982 322.146 M357.489 323.538 C 356.788 324.411,356.299 325.209,356.402 325.312 C 356.505 325.415,357.158 324.781,357.854 323.902 C 358.549 323.024,359.039 322.226,358.942 322.128 C 358.844 322.031,358.191 322.666,357.489 323.538 M86.013 325.268 C 86.341 325.912,86.981 326.878,87.435 327.415 L 88.260 328.390 87.601 327.194 C 87.238 326.536,86.598 325.570,86.179 325.047 L 85.416 324.098 86.013 325.268 M354.890 326.695 L 354.146 327.535 355.220 326.845 C 356.326 326.133,356.535 325.854,355.963 325.854 C 355.782 325.854,355.299 326.232,354.890 326.695 M46.049 328.502 C 46.049 328.696,46.426 329.189,46.886 329.598 C 47.718 330.336,47.720 330.336,47.274 329.485 C 46.777 328.537,46.049 327.952,46.049 328.502 M353.287 328.673 C 352.402 329.816,352.347 330.280,353.193 329.474 C 353.693 328.997,354.006 328.510,353.888 328.392 C 353.769 328.273,353.499 328.400,353.287 328.673 M91.902 332.272 C 93.834 334.107,95.572 335.609,95.765 335.609 C 96.195 335.610,89.427 329.217,88.823 329.053 C 88.585 328.988,89.971 330.437,91.902 332.272 M48.000 330.831 C 48.000 331.018,48.557 331.687,49.237 332.317 L 50.475 333.463 49.609 332.207 C 48.683 330.862,48.000 330.278,48.000 330.831 M351.167 331.217 C 349.777 332.894,349.620 333.360,350.834 332.208 C 351.560 331.517,352.061 330.857,351.945 330.742 C 351.830 330.626,351.480 330.840,351.167 331.217 M52.134 335.528 C 52.797 336.110,53.918 337.200,54.624 337.951 C 55.329 338.702,55.674 338.966,55.390 338.537 C 54.503 337.199,51.760 334.438,51.333 334.455 C 51.110 334.464,51.470 334.947,52.134 335.528 M346.896 335.902 C 344.273 338.724,344.032 339.295,346.443 336.976 C 347.782 335.688,348.877 334.590,348.877 334.537 C 348.880 334.096,348.030 334.683,346.896 335.902 M97.561 336.968 C 97.561 337.071,98.263 337.513,99.122 337.951 C 101.057 338.938,101.171 338.706,99.295 337.600 C 97.865 336.756,97.561 336.645,97.561 336.968 M141.190 344.273 C 141.554 344.637,141.763 344.637,142.127 344.273 C 142.491 343.909,142.387 343.805,141.659 343.805 C 140.930 343.805,140.826 343.909,141.190 344.273 M63.051 346.498 C 64.297 347.807,65.497 348.878,65.717 348.878 C 66.202 348.878,62.542 345.080,61.514 344.517 C 61.113 344.298,61.805 345.189,63.051 346.498 M137.756 344.585 C 137.756 344.800,138.009 344.976,138.318 344.976 C 138.628 344.976,138.989 344.800,139.122 344.585 C 139.255 344.371,139.002 344.195,138.560 344.195 C 138.118 344.195,137.756 344.371,137.756 344.585 M336.458 346.314 C 335.246 347.479,334.350 348.529,334.467 348.646 C 334.585 348.763,335.703 347.810,336.953 346.527 C 339.790 343.614,339.430 343.458,336.458 346.314 M122.537 344.976 C 122.537 345.190,122.965 345.366,123.489 345.366 C 124.013 345.366,124.550 345.190,124.683 344.976 C 124.824 344.748,124.427 344.585,123.730 344.585 C 123.074 344.585,122.537 344.761,122.537 344.976 M132.488 344.976 C 132.620 345.190,133.235 345.366,133.854 345.366 C 134.472 345.366,135.087 345.190,135.220 344.976 C 135.365 344.740,134.826 344.585,133.854 344.585 C 132.882 344.585,132.342 344.740,132.488 344.976 M67.683 350.763 C 68.313 351.443,68.982 352.000,69.169 352.000 C 69.722 352.000,69.138 351.317,67.793 350.391 L 66.537 349.525 67.683 350.763 M331.693 350.813 C 330.949 351.449,330.528 351.975,330.756 351.984 C 330.984 351.993,331.676 351.473,332.293 350.829 C 333.725 349.334,333.432 349.326,331.693 350.813 M69.854 352.540 C 69.854 352.623,70.337 353.002,70.927 353.381 L 72.000 354.072 71.257 353.231 C 70.599 352.487,69.854 352.120,69.854 352.540 M328.743 353.228 C 328.005 354.059,328.006 354.062,328.856 353.616 C 329.805 353.118,330.389 352.390,329.840 352.390 C 329.646 352.390,329.152 352.767,328.743 353.228 M150.414 363.317 C 150.414 368.790,150.468 371.029,150.535 368.293 C 150.603 365.556,150.603 361.078,150.535 358.341 C 150.468 355.605,150.414 357.844,150.414 363.317 M72.585 354.622 C 72.585 355.127,77.603 359.210,77.882 358.931 C 77.985 358.828,77.407 358.252,76.596 357.653 C 75.785 357.053,74.551 356.029,73.854 355.376 C 73.156 354.723,72.585 354.383,72.585 354.622 M326.439 355.122 C 326.048 355.554,325.816 355.995,325.923 356.102 C 326.031 356.210,326.438 355.944,326.829 355.512 C 327.220 355.080,327.452 354.639,327.345 354.532 C 327.237 354.424,326.830 354.690,326.439 355.122 M323.663 357.497 C 321.766 359.004,321.745 359.026,322.179 359.019 C 322.584 359.012,325.789 356.330,325.420 356.307 C 325.288 356.299,324.498 356.835,323.663 357.497 M83.105 362.893 C 85.563 365.222,88.195 366.853,88.195 366.049 C 88.195 365.834,87.946 365.659,87.642 365.659 C 87.338 365.659,87.031 365.525,86.959 365.361 C 86.836 365.079,83.602 362.696,82.341 361.958 C 82.020 361.770,82.363 362.190,83.105 362.893 M315.512 363.419 C 314.868 363.891,314.283 364.412,314.211 364.578 C 314.140 364.743,313.833 364.878,313.528 364.878 C 313.224 364.878,312.976 365.054,312.976 365.268 C 312.976 365.483,312.793 365.659,312.569 365.659 C 312.345 365.659,311.775 366.032,311.301 366.488 C 310.827 366.944,310.630 367.252,310.864 367.171 C 311.865 366.825,316.045 363.881,316.446 363.239 C 316.995 362.359,316.945 362.369,315.512 363.419 M91.512 368.592 C 91.941 368.942,92.644 369.400,93.073 369.611 L 93.854 369.994 93.073 369.359 C 92.644 369.009,91.941 368.551,91.512 368.340 L 90.732 367.957 91.512 368.592 M94.049 370.090 C 94.049 370.389,96.803 372.010,96.992 371.821 C 97.085 371.728,96.462 371.257,95.605 370.776 C 94.749 370.295,94.049 369.986,94.049 370.090 M303.707 371.163 C 302.580 371.820,301.659 372.512,301.659 372.702 C 301.659 372.892,302.493 372.498,303.512 371.827 C 306.806 369.659,306.914 369.294,303.707 371.163 M97.795 372.449 C 98.047 373.105,99.122 373.612,99.122 373.075 C 99.122 372.874,98.775 372.525,98.350 372.297 C 97.731 371.966,97.621 371.996,97.795 372.449 M100.293 374.021 C 100.293 374.251,105.964 377.366,106.381 377.366 C 106.565 377.366,105.365 376.576,103.715 375.610 C 100.807 373.907,100.293 373.669,100.293 374.021 M298.548 374.229 C 298.232 374.428,298.069 374.687,298.186 374.804 C 298.303 374.921,298.737 374.760,299.150 374.447 C 299.973 373.825,299.473 373.643,298.548 374.229 M294.829 376.421 C 293.971 376.933,293.407 377.356,293.577 377.359 C 294.004 377.368,296.976 375.832,296.976 375.602 C 296.976 375.261,296.408 375.478,294.829 376.421 M112.585 380.365 C 113.229 380.710,113.844 381.110,113.951 381.256 C 114.264 381.679,115.512 382.054,115.512 381.724 C 115.512 381.559,114.717 381.038,113.746 380.566 C 111.717 379.580,110.833 379.427,112.585 380.365 M285.756 380.779 C 285.059 381.126,284.488 381.554,284.488 381.729 C 284.488 382.215,285.150 382.111,285.728 381.536 C 286.012 381.254,286.595 380.820,287.024 380.572 C 288.198 379.894,287.209 380.056,285.756 380.779 M115.902 382.044 C 115.902 382.313,116.820 382.829,117.300 382.829 C 117.833 382.829,117.333 382.106,116.683 381.936 C 116.254 381.823,115.902 381.872,115.902 382.044 M118.634 383.164 C 118.634 383.565,119.816 384.119,120.089 383.846 C 120.184 383.751,119.896 383.477,119.448 383.237 C 119.000 382.998,118.634 382.965,118.634 383.164 M279.581 383.796 C 279.168 384.109,279.005 384.368,279.220 384.372 C 279.799 384.381,280.791 383.685,280.546 383.440 C 280.429 383.323,279.995 383.484,279.581 383.796 M147.928 387.227 C 146.817 388.596,146.773 388.712,147.671 387.902 C 148.605 387.062,149.713 385.547,149.380 385.568 C 149.318 385.572,148.665 386.318,147.928 387.227 M252.878 388.484 C 252.878 388.751,255.267 389.936,255.446 389.757 C 255.531 389.673,254.988 389.311,254.239 388.954 C 253.490 388.597,252.878 388.386,252.878 388.484 " stroke="none" fill="#cbcbcb" fill-rule="evenodd"></path><path id="path1" d="M193.951 0.259 C 189.624 0.391,179.263 1.113,177.909 1.375 C 177.395 1.475,176.098 1.647,175.024 1.758 C 173.951 1.869,172.546 2.046,171.902 2.153 C 171.259 2.259,170.117 2.448,169.366 2.573 C 168.615 2.697,167.473 2.874,166.829 2.966 C 166.185 3.058,165.220 3.196,164.683 3.272 C 164.146 3.349,163.426 3.531,163.083 3.677 C 162.739 3.822,162.300 3.905,162.107 3.860 C 161.914 3.815,161.493 3.881,161.171 4.007 C 159.903 4.500,152.851 5.823,152.533 5.626 C 152.347 5.511,152.195 5.569,152.195 5.754 C 152.195 5.939,150.483 6.498,148.390 6.996 C 146.298 7.495,142.039 8.746,138.927 9.776 C 135.815 10.807,133.005 11.707,132.683 11.776 C 132.361 11.846,132.010 11.996,131.902 12.111 C 131.795 12.225,129.161 13.279,126.049 14.452 C 90.438 27.876,52.996 58.533,32.649 90.927 C 31.368 92.966,29.522 95.863,28.546 97.366 C 25.722 101.713,17.825 117.506,15.277 123.902 C 12.440 131.022,8.585 141.828,8.585 142.659 C 8.585 143.018,8.402 143.152,8.135 142.987 C 7.870 142.823,7.790 142.879,7.940 143.123 C 8.081 143.351,7.500 146.319,6.650 149.720 C 5.799 153.120,4.986 156.649,4.843 157.561 C 4.700 158.473,4.454 159.220,4.297 159.220 C 4.139 159.220,4.095 159.659,4.197 160.195 C 4.303 160.751,4.201 161.171,3.960 161.171 C 3.727 161.171,3.620 161.390,3.721 161.659 C 3.823 161.927,3.637 163.463,3.309 165.073 C 2.980 166.683,2.646 168.439,2.565 168.976 C 2.485 169.512,2.302 170.654,2.160 171.512 C 2.017 172.371,1.842 173.600,1.769 174.244 C 1.697 174.888,1.450 176.995,1.220 178.927 C -0.224 191.074,-0.136 213.434,1.392 222.537 C 1.491 223.128,1.665 224.445,1.778 225.464 C 1.982 227.308,2.223 228.987,2.602 231.220 C 2.712 231.863,2.852 232.829,2.915 233.366 C 2.977 233.902,3.156 234.649,3.312 235.024 C 3.468 235.400,3.497 235.965,3.376 236.280 C 3.255 236.595,3.332 236.962,3.548 237.095 C 3.763 237.228,3.904 237.629,3.861 237.986 C 3.818 238.342,3.884 238.898,4.009 239.220 C 4.503 240.496,5.850 247.496,5.660 247.802 C 5.549 247.982,5.600 248.187,5.773 248.259 C 6.200 248.437,8.243 256.387,7.974 256.823 C 7.856 257.014,7.931 257.171,8.141 257.171 C 8.351 257.171,8.646 257.741,8.796 258.439 C 9.849 263.341,17.283 281.624,21.768 290.341 C 38.362 322.596,61.395 348.184,91.512 367.823 C 101.157 374.113,113.724 380.698,123.831 384.761 C 126.582 385.866,129.304 386.965,129.880 387.202 C 130.456 387.438,131.102 387.684,131.317 387.748 C 131.532 387.811,132.937 388.326,134.439 388.890 C 140.527 391.179,146.127 389.819,148.869 385.385 L 150.049 383.477 150.157 363.394 L 150.265 343.311 148.205 343.621 C 147.073 343.792,145.620 343.947,144.976 343.966 C 144.332 343.985,143.698 344.146,143.567 344.325 C 143.436 344.504,141.900 344.679,140.154 344.715 C 138.408 344.751,136.978 344.938,136.977 345.131 C 136.976 345.329,135.322 345.385,133.171 345.260 C 130.992 345.133,129.783 345.175,130.341 345.358 C 131.066 345.596,130.665 345.687,128.780 345.711 C 126.990 345.734,126.416 345.631,126.829 345.360 C 127.222 345.103,126.292 345.059,124.000 345.229 C 121.443 345.418,120.585 345.362,120.585 345.007 C 120.585 344.707,120.292 344.626,119.786 344.786 C 118.801 345.099,113.561 344.254,113.561 343.782 C 113.561 343.593,113.329 343.528,113.044 343.637 C 111.443 344.252,102.595 340.556,97.554 337.166 C 89.360 331.656,85.998 327.368,81.189 316.293 C 76.693 305.937,69.312 296.038,62.966 291.852 C 57.754 288.414,56.690 287.600,55.007 285.759 C 50.772 281.128,52.746 278.231,60.293 278.000 C 63.897 277.889,69.854 278.820,69.854 279.494 C 69.854 279.690,70.017 279.750,70.218 279.626 C 70.827 279.249,74.886 281.258,78.861 283.905 C 84.261 287.499,89.600 293.169,93.145 299.073 C 98.885 308.633,109.235 317.299,116.550 318.672 C 117.263 318.805,117.777 319.027,117.692 319.165 C 117.607 319.302,118.004 319.433,118.574 319.456 C 121.393 319.569,125.708 320.155,125.890 320.449 C 126.158 320.882,129.951 320.882,129.951 320.448 C 129.951 320.265,131.400 320.002,133.171 319.865 C 140.009 319.332,150.169 315.996,150.704 314.107 C 150.850 313.592,151.400 311.310,151.927 309.036 C 153.642 301.636,156.603 295.678,160.993 290.795 C 163.034 288.525,162.939 288.390,159.148 288.151 C 157.623 288.055,156.194 287.865,155.974 287.728 C 155.753 287.592,155.120 287.440,154.566 287.390 C 151.426 287.110,149.238 286.738,148.853 286.418 C 148.613 286.219,148.316 286.155,148.194 286.277 C 148.072 286.399,146.947 286.229,145.694 285.898 C 144.440 285.568,141.176 284.738,138.439 284.054 C 135.702 283.370,133.463 282.651,133.463 282.455 C 133.463 282.260,133.284 282.211,133.064 282.347 C 130.756 283.773,109.772 273.191,101.908 266.636 C 90.546 257.165,79.421 239.833,77.136 228.041 C 77.058 227.643,76.884 227.054,76.747 226.732 C 75.701 224.264,73.133 210.102,73.487 208.751 C 73.595 208.338,73.502 208.000,73.280 208.000 C 73.031 208.000,72.948 207.253,73.064 206.049 C 73.174 204.901,73.093 204.098,72.867 204.098 C 72.632 204.098,72.556 202.955,72.671 201.158 C 72.775 199.541,72.710 198.126,72.528 198.013 C 72.097 197.747,72.091 184.305,72.521 184.040 C 72.701 183.929,72.767 182.865,72.668 181.675 C 72.569 180.486,72.647 179.512,72.840 179.512 C 73.033 179.512,73.124 178.810,73.042 177.951 C 72.961 177.093,73.057 176.390,73.257 176.390 C 73.457 176.390,73.544 175.863,73.449 175.220 C 73.355 174.576,73.429 174.048,73.614 174.046 C 73.800 174.045,73.984 173.298,74.025 172.388 C 74.358 164.921,81.680 149.595,89.732 139.512 C 91.754 136.980,92.478 135.782,92.327 135.220 C 90.207 127.340,89.743 125.323,89.878 124.585 C 89.966 124.102,89.868 123.707,89.661 123.707 C 89.454 123.707,89.351 123.005,89.433 122.146 C 89.515 121.288,89.479 120.585,89.353 120.585 C 89.228 120.585,89.120 117.161,89.115 112.976 C 89.109 108.790,89.212 105.366,89.343 105.366 C 89.474 105.366,89.515 104.663,89.433 103.805 C 89.351 102.946,89.434 102.242,89.618 102.241 C 89.801 102.239,89.981 101.234,90.018 100.007 C 90.055 98.780,90.264 97.717,90.484 97.644 C 90.703 97.570,90.792 97.273,90.681 96.983 C 90.123 95.530,94.312 82.900,95.325 82.981 C 95.696 83.011,96.000 82.879,96.000 82.688 C 96.000 82.277,102.767 82.215,103.175 82.623 C 103.330 82.777,104.062 82.852,104.801 82.788 C 105.613 82.718,106.146 82.848,106.146 83.115 C 106.146 83.359,106.326 83.447,106.546 83.311 C 106.984 83.041,111.662 84.014,113.431 84.743 C 114.039 84.994,114.662 85.173,114.816 85.141 C 115.106 85.080,124.593 88.925,128.440 90.663 C 131.625 92.102,137.100 95.191,143.980 99.432 L 150.008 103.147 153.475 102.302 C 155.381 101.837,157.088 101.547,157.267 101.657 C 157.445 101.768,157.651 101.685,157.723 101.473 C 157.795 101.261,158.556 101.017,159.415 100.930 C 160.273 100.844,161.283 100.646,161.659 100.491 C 162.034 100.336,162.594 100.306,162.902 100.424 C 163.210 100.542,163.520 100.464,163.592 100.249 C 163.663 100.035,164.639 99.825,165.760 99.783 C 166.881 99.742,167.800 99.606,167.802 99.482 C 167.806 99.170,175.233 98.225,175.510 98.502 C 175.633 98.624,175.964 98.533,176.247 98.298 C 176.530 98.063,178.417 97.845,180.440 97.814 C 182.463 97.782,184.054 97.651,183.975 97.522 C 183.896 97.394,185.801 97.175,188.208 97.036 C 197.245 96.516,216.413 96.893,215.986 97.583 C 215.886 97.745,216.858 97.782,218.146 97.665 C 219.434 97.548,220.488 97.610,220.488 97.802 C 220.488 97.995,221.278 98.089,222.244 98.012 C 223.210 97.935,224.002 98.022,224.004 98.205 C 224.006 98.387,225.191 98.581,226.638 98.635 C 228.085 98.689,229.323 98.896,229.389 99.094 C 229.455 99.293,230.114 99.358,230.852 99.238 C 231.752 99.092,232.195 99.173,232.195 99.484 C 232.195 99.740,232.381 99.834,232.608 99.693 C 233.127 99.373,240.390 100.716,240.390 101.132 C 240.390 101.301,240.632 101.346,240.927 101.233 C 241.405 101.049,245.494 101.904,247.024 102.508 C 249.140 103.342,250.155 103.063,254.162 100.553 C 261.830 95.749,268.915 91.775,273.074 89.945 C 278.827 87.415,284.569 85.147,285.696 84.960 C 286.212 84.875,287.147 84.595,287.775 84.338 C 288.402 84.081,289.148 83.960,289.433 84.069 C 289.718 84.179,289.951 84.114,289.951 83.925 C 289.951 83.494,295.237 82.580,296.012 82.877 C 296.327 82.998,296.585 82.927,296.585 82.719 C 296.585 82.502,298.161 82.341,300.293 82.341 C 302.424 82.341,304.000 82.502,304.000 82.719 C 304.000 82.927,304.246 83.003,304.547 82.887 C 305.775 82.416,310.776 99.777,310.127 102.259 C 310.017 102.680,310.110 103.024,310.335 103.024 C 310.595 103.024,310.659 103.734,310.510 104.988 C 310.367 106.198,310.421 106.863,310.651 106.721 C 310.883 106.578,311.024 108.939,311.024 112.953 C 311.024 116.507,310.870 119.415,310.682 119.415 C 310.494 119.415,310.429 120.205,310.538 121.171 C 310.650 122.166,310.574 122.927,310.362 122.927 C 310.157 122.927,310.056 123.410,310.139 124.000 C 310.221 124.590,309.735 127.180,309.060 129.756 C 308.384 132.332,307.744 134.809,307.637 135.261 C 307.494 135.865,308.266 137.107,310.546 139.944 C 315.605 146.238,321.932 157.237,322.531 160.780 C 322.549 160.888,322.759 161.327,322.997 161.756 C 323.671 162.973,324.693 166.692,324.458 167.073 C 324.342 167.261,324.453 167.415,324.705 167.415 C 324.972 167.415,325.079 167.741,324.960 168.195 C 324.848 168.624,324.892 168.976,325.059 168.976 C 325.461 168.976,326.352 173.558,326.046 174.053 C 325.915 174.265,326.007 174.439,326.250 174.439 C 326.494 174.439,326.655 174.922,326.608 175.512 C 326.561 176.102,326.655 176.895,326.817 177.273 C 326.979 177.651,327.035 178.485,326.940 179.127 C 326.846 179.768,326.931 180.293,327.128 180.293 C 327.325 180.293,327.427 181.332,327.353 182.602 C 327.280 183.872,327.352 185.043,327.513 185.204 C 327.943 185.634,327.873 195.902,327.440 195.902 C 327.224 195.902,327.167 197.315,327.299 199.358 C 327.443 201.576,327.377 202.904,327.116 203.066 C 326.883 203.209,326.797 203.980,326.915 204.860 C 327.029 205.708,327.000 206.718,326.850 207.103 C 326.701 207.489,326.505 209.034,326.414 210.535 C 326.324 212.037,326.083 213.322,325.879 213.390 C 325.674 213.458,325.601 213.758,325.716 214.057 C 326.001 214.801,324.248 223.610,323.814 223.610 C 323.623 223.610,323.556 223.755,323.665 223.932 C 323.869 224.262,322.855 228.568,322.408 229.268 C 322.270 229.483,322.134 229.790,322.104 229.951 C 322.073 230.112,322.013 230.288,321.970 230.341 C 321.927 230.395,321.835 230.727,321.767 231.080 C 321.698 231.432,320.817 233.803,319.809 236.348 C 310.013 261.068,289.950 277.293,260.733 284.121 C 258.023 284.755,254.794 285.545,253.558 285.877 C 252.322 286.209,251.149 286.381,250.951 286.259 C 250.753 286.136,250.479 286.216,250.343 286.437 C 250.207 286.657,249.624 286.827,249.048 286.815 C 248.471 286.802,246.595 287.063,244.878 287.394 C 243.161 287.725,241.317 287.995,240.780 287.993 C 240.244 287.992,239.160 288.098,238.372 288.230 L 236.938 288.469 239.290 291.259 C 243.920 296.752,246.589 302.476,248.506 311.024 L 249.513 315.512 249.732 349.659 L 249.951 383.805 250.978 385.366 C 253.699 389.504,258.884 391.125,264.058 389.455 C 303.899 376.595,343.361 346.085,366.764 310.049 C 368.576 307.259,370.657 304.055,371.389 302.931 C 373.790 299.241,381.218 284.786,383.272 279.805 C 386.205 272.693,390.054 262.420,390.837 259.610 C 391.211 258.268,391.680 257.171,391.879 257.171 C 392.078 257.171,392.144 257.014,392.026 256.823 C 391.757 256.387,393.800 248.437,394.227 248.259 C 394.400 248.187,394.448 247.978,394.334 247.793 C 394.139 247.478,395.100 242.442,395.598 241.171 C 395.724 240.849,395.792 240.294,395.749 239.937 C 395.705 239.580,395.857 239.173,396.085 239.032 C 396.314 238.891,396.414 238.635,396.308 238.464 C 396.202 238.292,396.387 236.768,396.719 235.076 C 397.051 233.384,397.403 231.385,397.501 230.634 C 397.599 229.883,397.760 229.005,397.858 228.683 C 400.541 219.907,400.261 183.187,397.401 168.585 C 397.296 168.049,397.140 167.171,397.054 166.634 C 396.968 166.098,396.636 164.369,396.315 162.792 C 395.994 161.215,395.754 159.811,395.782 159.670 C 395.809 159.530,395.722 159.151,395.588 158.829 C 395.454 158.507,394.823 155.961,394.184 153.171 C 380.485 93.292,334.442 39.047,277.659 15.886 C 272.174 13.649,259.429 9.018,257.936 8.719 C 257.288 8.589,256.901 8.316,257.042 8.087 C 257.181 7.863,257.103 7.801,256.864 7.948 C 256.444 8.208,246.624 5.941,246.244 5.496 C 246.137 5.371,245.346 5.213,244.488 5.144 C 243.629 5.076,242.868 4.856,242.796 4.654 C 242.724 4.453,242.502 4.389,242.303 4.512 C 241.960 4.724,238.141 4.109,236.878 3.638 C 236.556 3.519,235.502 3.350,234.537 3.263 C 233.571 3.176,232.517 2.992,232.195 2.854 C 231.873 2.717,231.171 2.562,230.634 2.512 C 230.098 2.461,228.956 2.307,228.098 2.170 C 227.239 2.032,225.922 1.851,225.171 1.766 C 224.420 1.682,223.190 1.519,222.439 1.405 C 217.767 0.696,201.294 0.033,193.951 0.259 " stroke="none" fill="#040404" fill-rule="evenodd"></path><path id="path2" d="M292.683 22.829 C 293.220 23.136,293.834 23.387,294.049 23.387 C 294.263 23.387,294.000 23.136,293.463 22.829 C 292.927 22.523,292.312 22.272,292.098 22.272 C 291.883 22.272,292.146 22.523,292.683 22.829 M332.878 50.431 C 332.878 50.491,333.405 51.037,334.049 51.645 C 334.694 52.253,335.118 52.482,334.992 52.155 C 334.802 51.660,332.878 50.091,332.878 50.431 M65.909 51.220 C 65.589 51.488,65.079 52.059,64.776 52.488 C 64.473 52.917,64.789 52.753,65.478 52.122 C 66.168 51.492,66.732 50.921,66.732 50.854 C 66.732 50.624,66.491 50.732,65.909 51.220 M341.073 58.341 C 342.456 59.737,343.675 60.878,343.782 60.878 C 343.890 60.878,342.846 59.737,341.463 58.341 C 340.081 56.946,338.862 55.805,338.754 55.805 C 338.647 55.805,339.690 56.946,341.073 58.341 M58.327 58.634 L 56.390 60.683 58.439 58.746 C 60.343 56.947,60.667 56.585,60.376 56.585 C 60.314 56.585,59.392 57.507,58.327 58.634 M52.081 65.082 C 51.642 65.453,51.031 66.107,50.722 66.537 C 50.413 66.966,50.814 66.702,51.613 65.951 C 52.411 65.200,53.067 64.541,53.069 64.488 C 53.077 64.292,52.862 64.421,52.081 65.082 M97.216 82.696 C 96.883 82.907,97.407 82.967,98.582 82.853 C 101.225 82.595,101.593 82.408,99.512 82.378 C 98.546 82.365,97.513 82.507,97.216 82.696 M298.732 82.536 C 299.669 82.857,303.244 82.987,302.765 82.684 C 302.478 82.502,301.366 82.365,300.293 82.378 C 299.220 82.392,298.517 82.463,298.732 82.536 M128.000 90.729 C 128.000 90.993,131.170 92.570,131.346 92.394 C 131.428 92.312,130.709 91.863,129.748 91.396 C 128.786 90.929,128.000 90.629,128.000 90.729 M269.561 91.734 C 268.756 92.159,268.098 92.594,268.098 92.700 C 268.098 92.807,268.800 92.536,269.659 92.098 C 270.517 91.660,271.220 91.217,271.220 91.114 C 271.220 90.859,271.217 90.860,269.561 91.734 M376.780 106.537 C 377.113 107.180,377.474 107.707,377.581 107.707 C 377.688 107.707,377.504 107.180,377.171 106.537 C 376.838 105.893,376.478 105.366,376.370 105.366 C 376.263 105.366,376.448 105.893,376.780 106.537 M22.515 107.127 C 22.158 107.875,21.947 108.488,22.045 108.488 C 22.312 108.488,23.497 106.098,23.318 105.920 C 23.234 105.835,22.872 106.378,22.515 107.127 M88.976 107.122 C 88.976 107.444,89.151 107.707,89.366 107.707 C 89.580 107.707,89.756 107.444,89.756 107.122 C 89.756 106.800,89.580 106.537,89.366 106.537 C 89.151 106.537,88.976 106.800,88.976 107.122 M15.732 121.268 C 15.599 121.644,15.416 122.127,15.326 122.341 C 15.235 122.556,15.438 122.391,15.776 121.974 C 16.389 121.218,16.575 120.585,16.183 120.585 C 16.069 120.585,15.866 120.893,15.732 121.268 M383.610 120.878 C 383.610 121.064,383.864 121.558,384.176 121.974 C 384.722 122.705,384.734 122.701,384.519 121.848 C 384.297 120.967,383.610 120.234,383.610 120.878 M72.446 186.829 C 72.133 188.721,72.194 193.476,72.547 194.732 C 72.698 195.268,72.823 193.380,72.825 190.537 C 72.828 184.896,72.804 184.662,72.446 186.829 M326.829 200.585 C 326.683 201.047,326.651 201.512,326.758 201.620 C 326.865 201.727,327.073 201.437,327.220 200.976 C 327.366 200.514,327.398 200.048,327.291 199.941 C 327.183 199.834,326.976 200.124,326.829 200.585 M72.619 201.171 C 72.607 201.600,72.768 202.215,72.976 202.537 C 73.477 203.312,73.477 202.337,72.976 201.171 L 72.640 200.390 72.619 201.171 M82.613 241.751 C 82.970 242.500,83.331 243.043,83.416 242.958 C 83.594 242.780,82.410 240.390,82.143 240.390 C 82.044 240.390,82.256 241.003,82.613 241.751 M94.439 259.317 C 95.167 260.068,95.851 260.683,95.958 260.683 C 96.065 260.683,95.557 260.068,94.829 259.317 C 94.101 258.566,93.418 257.951,93.310 257.951 C 93.203 257.951,93.711 258.566,94.439 259.317 M97.139 261.988 C 97.697 262.683,99.122 263.597,99.122 263.260 C 99.122 263.160,98.551 262.677,97.854 262.188 C 96.954 261.557,96.746 261.499,97.139 261.988 M85.686 290.031 C 86.299 290.826,86.886 291.391,86.990 291.286 C 87.094 291.182,86.593 290.532,85.876 289.841 L 84.572 288.585 85.686 290.031 M50.307 333.171 C 50.785 333.868,51.372 334.439,51.613 334.439 C 51.871 334.439,51.820 334.238,51.489 333.951 C 51.180 333.683,50.592 333.112,50.183 332.683 C 49.637 332.110,49.670 332.239,50.307 333.171 M349.195 333.268 C 348.630 333.912,348.316 334.439,348.496 334.439 C 348.677 334.439,349.200 333.912,349.659 333.268 C 350.117 332.624,350.432 332.098,350.357 332.098 C 350.283 332.098,349.760 332.624,349.195 333.268 M55.707 338.927 C 56.641 340.302,61.065 344.591,61.532 344.574 C 61.709 344.567,61.063 343.881,60.098 343.049 C 59.132 342.217,57.570 340.685,56.627 339.646 C 55.684 338.606,55.270 338.283,55.707 338.927 M341.073 341.932 C 339.463 343.460,338.498 344.519,338.927 344.286 C 339.682 343.875,344.553 339.105,344.183 339.138 C 344.082 339.147,342.683 340.405,341.073 341.932 M108.098 342.079 C 108.098 342.342,110.125 343.079,110.318 342.885 C 110.406 342.797,109.943 342.538,109.288 342.309 C 108.633 342.081,108.098 341.977,108.098 342.079 M249.517 365.463 C 249.518 368.254,249.580 369.344,249.656 367.886 C 249.731 366.429,249.730 364.146,249.654 362.813 C 249.578 361.481,249.517 362.673,249.517 365.463 M150.390 377.171 C 150.391 379.532,150.455 380.447,150.533 379.205 C 150.610 377.963,150.610 376.032,150.531 374.913 C 150.453 373.794,150.389 374.810,150.390 377.171 M103.805 375.594 C 103.805 375.701,104.507 376.147,105.366 376.585 C 106.224 377.023,106.927 377.294,106.927 377.187 C 106.927 377.079,106.224 376.633,105.366 376.195 C 104.507 375.757,103.805 375.487,103.805 375.594 " stroke="none" fill="#7c7c7c" fill-rule="evenodd"></path><path id="path3" d="M194.251 0.283 C 194.952 0.370,196.006 0.368,196.592 0.279 C 197.179 0.190,196.605 0.119,195.317 0.121 C 194.029 0.123,193.549 0.196,194.251 0.283 M203.617 0.283 C 204.318 0.370,205.372 0.368,205.958 0.279 C 206.545 0.190,205.971 0.119,204.683 0.121 C 203.395 0.123,202.915 0.196,203.617 0.283 M232.148 2.841 C 232.336 3.029,232.995 3.120,233.611 3.043 C 234.643 2.915,234.615 2.887,233.269 2.701 C 232.430 2.585,231.952 2.644,232.148 2.841 M264.195 10.669 C 264.195 10.770,264.985 11.123,265.951 11.452 C 267.716 12.053,268.471 11.974,266.829 11.360 C 265.177 10.742,264.195 10.484,264.195 10.669 M268.098 12.180 C 268.205 12.285,268.903 12.578,269.650 12.831 C 270.396 13.083,270.835 13.122,270.625 12.916 C 270.416 12.711,269.717 12.418,269.073 12.265 C 268.429 12.113,267.990 12.074,268.098 12.180 M111.902 20.319 C 111.098 20.744,110.439 21.179,110.439 21.286 C 110.439 21.459,113.521 20.019,113.919 19.659 C 114.368 19.253,113.196 19.637,111.902 20.319 M286.081 19.660 C 286.479 20.023,290.341 21.847,290.341 21.672 C 290.341 21.452,286.615 19.512,286.192 19.512 C 286.042 19.512,285.992 19.579,286.081 19.660 M93.268 30.864 C 92.620 31.394,92.555 31.527,93.073 31.259 C 94.346 30.601,95.052 30.061,94.634 30.063 C 94.420 30.065,93.805 30.425,93.268 30.864 M329.727 48.129 C 330.721 49.224,330.935 49.359,330.915 48.878 C 330.908 48.717,330.425 48.248,329.841 47.836 L 328.780 47.087 329.727 48.129 M58.531 58.829 L 53.268 64.195 58.634 58.932 C 61.585 56.038,64.000 53.623,64.000 53.566 C 64.000 53.287,63.420 53.845,58.531 58.829 M341.268 58.927 C 344.267 61.932,346.809 64.390,346.916 64.390 C 347.024 64.390,344.658 61.932,341.659 58.927 C 338.659 55.922,336.118 53.463,336.010 53.463 C 335.903 53.463,338.269 55.922,341.268 58.927 M351.610 70.049 C 352.114 70.585,352.592 71.024,352.672 71.024 C 352.996 71.024,351.388 69.097,351.054 69.085 C 350.856 69.079,351.106 69.512,351.610 70.049 M305.383 84.390 C 305.529 84.873,305.809 85.440,306.006 85.650 C 306.202 85.859,306.165 85.464,305.924 84.772 C 305.429 83.354,304.973 83.032,305.383 84.390 M111.044 84.252 C 111.248 84.444,112.029 84.705,112.780 84.834 L 114.146 85.066 112.780 84.514 C 111.148 83.854,110.521 83.759,111.044 84.252 M93.352 86.499 C 93.111 87.283,93.069 87.766,93.259 87.572 C 93.641 87.181,94.233 85.073,93.961 85.073 C 93.867 85.073,93.593 85.715,93.352 86.499 M115.122 85.398 C 115.444 85.596,116.146 85.877,116.683 86.020 C 117.361 86.202,117.480 86.171,117.073 85.919 C 116.751 85.721,116.049 85.440,115.512 85.297 C 114.834 85.115,114.715 85.146,115.122 85.398 M283.512 85.644 C 282.005 86.335,282.706 86.345,284.488 85.659 C 285.239 85.369,285.590 85.127,285.268 85.120 C 284.946 85.114,284.156 85.350,283.512 85.644 M265.561 93.685 C 264.248 94.526,264.429 94.672,265.933 93.986 C 266.480 93.737,266.927 93.386,266.927 93.206 C 266.927 92.798,266.969 92.783,265.561 93.685 M145.951 100.799 C 145.951 100.905,146.848 101.567,147.943 102.270 L 149.936 103.549 153.625 102.659 C 155.654 102.170,157.238 101.694,157.145 101.601 C 157.052 101.508,155.452 101.814,153.589 102.281 C 149.973 103.188,149.820 103.168,147.220 101.446 C 146.522 100.984,145.951 100.693,145.951 100.799 M251.707 102.092 C 250.671 102.835,250.012 103.027,248.976 102.885 C 247.811 102.725,247.736 102.757,248.463 103.104 C 249.561 103.629,250.824 103.288,252.293 102.071 C 253.804 100.819,253.464 100.831,251.707 102.092 M243.179 101.621 C 243.542 102.027,247.455 103.016,247.225 102.643 C 247.120 102.472,246.404 102.214,245.635 102.070 C 244.866 101.926,243.942 101.702,243.582 101.573 C 243.222 101.445,243.040 101.466,243.179 101.621 M310.528 106.772 C 310.372 106.929,310.244 107.326,310.244 107.655 C 310.244 108.095,310.359 108.138,310.678 107.820 C 310.917 107.581,311.045 107.183,310.963 106.937 C 310.880 106.690,310.685 106.616,310.528 106.772 M378.732 110.829 C 379.488 112.332,380.195 113.561,380.302 113.561 C 380.410 113.561,379.879 112.332,379.122 110.829 C 378.365 109.327,377.658 108.098,377.551 108.098 C 377.444 108.098,377.975 109.327,378.732 110.829 M20.663 111.259 C 20.002 112.569,19.525 113.704,19.604 113.783 C 19.683 113.862,20.307 112.790,20.992 111.402 C 21.677 110.014,22.153 108.878,22.051 108.878 C 21.949 108.878,21.324 109.949,20.663 111.259 M12.467 130.200 C 12.252 130.767,12.148 131.303,12.237 131.391 C 12.325 131.480,12.584 131.016,12.813 130.361 C 13.320 128.906,13.014 128.763,12.467 130.200 M11.167 133.704 C 10.822 134.717,10.606 135.615,10.689 135.697 C 10.772 135.780,11.122 135.018,11.467 134.004 C 11.813 132.990,12.028 132.093,11.945 132.010 C 11.863 131.928,11.512 132.690,11.167 133.704 M388.126 132.683 C 388.270 133.220,388.550 133.922,388.749 134.244 C 389.000 134.651,389.031 134.532,388.849 133.854 C 388.706 133.317,388.426 132.615,388.227 132.293 C 387.975 131.886,387.945 132.005,388.126 132.683 M395.963 160.976 C 396.094 161.834,396.266 162.610,396.344 162.699 C 396.640 163.034,396.419 160.944,396.079 160.195 C 395.833 159.651,395.798 159.888,395.963 160.976 M3.317 163.122 C 3.167 164.009,3.126 164.817,3.226 164.917 C 3.326 165.017,3.525 164.368,3.668 163.473 C 3.811 162.579,3.852 161.771,3.759 161.678 C 3.666 161.585,3.467 162.234,3.317 163.122 M322.948 162.146 C 323.074 162.576,323.275 163.413,323.395 164.008 C 323.515 164.603,323.785 165.196,323.995 165.325 C 324.429 165.594,324.102 164.346,323.263 162.537 C 322.965 161.893,322.823 161.717,322.948 162.146 M76.176 163.785 C 75.598 165.667,75.878 165.946,76.488 164.098 C 76.745 163.318,76.880 162.604,76.787 162.511 C 76.694 162.418,76.419 162.992,76.176 163.785 M72.480 184.041 C 72.323 184.197,72.200 184.691,72.207 185.138 C 72.218 185.889,72.250 185.898,72.625 185.254 C 73.061 184.503,72.950 183.571,72.480 184.041 M327.052 186.221 C 327.099 188.453,327.746 189.363,327.777 187.243 C 327.793 186.236,327.629 185.303,327.415 185.171 C 327.183 185.027,327.036 185.454,327.052 186.221 M327.268 192.829 C 326.910 194.622,326.971 195.902,327.415 195.902 C 327.629 195.902,327.805 194.937,327.805 193.756 C 327.805 191.338,327.628 191.032,327.268 192.829 M399.700 193.561 C 399.700 194.312,399.781 194.620,399.879 194.244 C 399.977 193.868,399.977 193.254,399.879 192.878 C 399.781 192.502,399.700 192.810,399.700 193.561 M72.223 196.367 C 72.207 197.159,72.371 197.916,72.585 198.049 C 73.056 198.340,73.056 196.803,72.585 195.707 C 72.315 195.078,72.245 195.206,72.223 196.367 M326.915 201.886 C 326.480 202.991,326.551 203.556,327.061 203.046 C 327.296 202.812,327.422 202.294,327.342 201.895 C 327.202 201.196,327.186 201.196,326.915 201.886 M72.591 203.220 C 72.588 203.702,72.761 204.098,72.976 204.098 C 73.465 204.098,73.465 203.683,72.976 202.927 C 72.670 202.453,72.596 202.509,72.591 203.220 M399.708 206.634 C 399.713 207.493,399.792 207.798,399.886 207.313 C 399.979 206.827,399.976 206.125,399.878 205.752 C 399.780 205.378,399.704 205.776,399.708 206.634 M0.098 207.024 C 0.103 207.883,0.183 208.188,0.276 207.703 C 0.369 207.217,0.366 206.515,0.268 206.142 C 0.170 205.769,0.094 206.166,0.098 207.024 M75.817 223.289 C 75.946 223.650,76.170 224.574,76.314 225.342 C 76.458 226.111,76.716 226.827,76.887 226.933 C 77.260 227.163,76.271 223.250,75.865 222.886 C 75.710 222.748,75.688 222.929,75.817 223.289 M322.764 226.959 C 322.512 227.960,322.379 228.851,322.469 228.940 C 322.558 229.030,322.838 228.285,323.089 227.285 C 323.341 226.284,323.474 225.393,323.385 225.303 C 323.295 225.214,323.016 225.959,322.764 226.959 M2.580 232.780 C 2.901 234.215,3.124 234.527,3.116 233.528 C 3.113 233.117,2.932 232.517,2.714 232.195 C 2.425 231.768,2.388 231.925,2.580 232.780 M396.536 235.902 C 396.503 236.332,396.387 237.122,396.276 237.659 L 396.076 238.634 396.494 237.677 C 396.723 237.150,396.840 236.360,396.753 235.921 C 396.598 235.143,396.593 235.142,396.536 235.902 M95.220 260.488 C 96.385 261.668,97.427 262.634,97.534 262.634 C 97.642 262.634,96.776 261.668,95.610 260.488 C 94.444 259.307,93.402 258.341,93.295 258.341 C 93.188 258.341,94.054 259.307,95.220 260.488 M303.402 261.561 L 301.073 264.000 303.512 261.671 C 305.778 259.507,306.130 259.122,305.841 259.122 C 305.781 259.122,304.684 260.220,303.402 261.561 M11.530 267.415 C 11.676 267.898,11.956 268.464,12.152 268.674 C 12.348 268.884,12.311 268.489,12.070 267.796 C 11.576 266.378,11.119 266.056,11.530 267.415 M387.946 267.751 C 387.705 268.440,387.577 269.073,387.660 269.156 C 387.744 269.240,388.009 268.744,388.249 268.054 C 388.490 267.365,388.618 266.732,388.535 266.649 C 388.451 266.565,388.186 267.061,387.946 267.751 M279.122 277.691 C 278.424 277.997,277.854 278.336,277.854 278.445 C 277.854 278.649,280.591 277.588,280.923 277.256 C 281.255 276.924,280.410 277.128,279.122 277.691 M71.415 280.030 C 71.415 280.293,73.442 281.030,73.635 280.837 C 73.724 280.748,73.260 280.489,72.605 280.261 C 71.950 280.032,71.415 279.928,71.415 280.030 M149.016 286.538 C 149.213 286.734,149.789 286.830,150.296 286.750 C 151.078 286.627,151.023 286.572,149.939 286.393 C 149.163 286.264,148.799 286.321,149.016 286.538 M153.366 287.202 C 153.688 287.420,154.288 287.600,154.699 287.604 C 155.698 287.612,155.386 287.388,153.951 287.067 C 153.096 286.876,152.938 286.912,153.366 287.202 M244.488 287.230 C 243.967 287.460,244.291 287.498,245.463 287.343 C 246.429 287.215,247.293 287.048,247.382 286.970 C 247.721 286.677,245.233 286.900,244.488 287.230 M155.902 287.610 C 156.035 287.824,156.528 287.988,156.999 287.973 C 157.823 287.946,157.826 287.933,157.073 287.610 C 155.999 287.148,155.617 287.148,155.902 287.610 M241.756 287.610 L 240.976 287.945 241.756 287.967 C 242.185 287.978,242.800 287.818,243.122 287.610 C 243.898 287.108,242.923 287.108,241.756 287.610 M21.263 290.194 C 21.588 290.971,21.854 291.674,21.854 291.755 C 21.854 291.836,22.026 291.902,22.238 291.902 C 22.449 291.902,22.255 291.200,21.808 290.341 C 20.793 288.395,20.475 288.309,21.263 290.194 M236.878 288.903 C 236.878 288.970,237.449 289.540,238.146 290.171 L 239.415 291.317 238.268 290.049 C 237.200 288.867,236.878 288.601,236.878 288.903 M155.499 298.563 C 155.158 299.221,154.942 299.948,155.018 300.177 C 155.095 300.406,155.442 299.867,155.791 298.980 C 156.536 297.082,156.380 296.859,155.499 298.563 M100.276 308.780 C 101.894 310.503,102.244 310.813,102.244 310.520 C 102.244 310.458,101.410 309.624,100.390 308.667 L 98.537 306.927 100.276 308.780 M147.902 316.098 C 146.937 316.503,146.344 316.844,146.586 316.856 C 147.140 316.884,149.854 315.763,149.854 315.507 C 149.854 315.266,149.963 315.233,147.902 316.098 M124.293 320.390 C 124.425 320.605,124.885 320.780,125.314 320.780 C 125.744 320.780,125.986 320.605,125.854 320.390 C 125.721 320.176,125.261 320.000,124.832 320.000 C 124.403 320.000,124.160 320.176,124.293 320.390 M129.951 320.390 C 129.951 320.605,130.204 320.780,130.514 320.780 C 130.823 320.780,131.184 320.605,131.317 320.390 C 131.450 320.176,131.197 320.000,130.755 320.000 C 130.313 320.000,129.951 320.176,129.951 320.390 M85.344 325.103 C 85.732 325.764,86.298 326.510,86.603 326.762 C 86.908 327.014,86.665 326.473,86.063 325.561 C 84.800 323.646,84.302 323.329,85.344 325.103 M100.293 338.935 C 100.293 339.140,103.014 340.550,104.493 341.112 C 105.071 341.332,105.432 341.400,105.295 341.262 C 104.923 340.891,100.293 338.737,100.293 338.935 M56.976 340.021 C 56.976 340.090,57.524 340.662,58.195 341.293 C 59.049 342.095,59.266 342.193,58.918 341.619 C 58.489 340.910,56.976 339.666,56.976 340.021 M341.442 341.366 L 340.098 342.829 341.561 341.484 C 342.923 340.233,343.204 339.902,342.906 339.902 C 342.841 339.902,342.182 340.561,341.442 341.366 M126.829 345.366 C 126.421 345.630,127.010 345.734,128.780 345.711 C 130.637 345.687,131.056 345.595,130.341 345.366 C 128.961 344.924,127.513 344.924,126.829 345.366 M331.878 350.146 L 330.732 351.415 332.000 350.268 C 332.698 349.638,333.268 349.067,333.268 349.000 C 333.268 348.699,332.946 348.964,331.878 350.146 M249.507 377.756 C 249.507 379.795,249.572 380.629,249.653 379.610 C 249.733 378.590,249.733 376.922,249.653 375.902 C 249.572 374.883,249.507 375.717,249.507 377.756 M292.098 377.392 C 290.785 378.233,290.965 378.379,292.469 377.693 C 293.016 377.444,293.463 377.093,293.463 376.913 C 293.463 376.505,293.506 376.490,292.098 377.392 M271.610 386.552 C 270.429 387.060,269.639 387.484,269.854 387.494 C 270.369 387.517,273.838 386.195,274.193 385.839 C 274.669 385.364,273.841 385.592,271.610 386.552 M126.829 386.176 C 126.829 386.440,128.856 387.176,129.050 386.983 C 129.138 386.894,128.675 386.635,128.020 386.407 C 127.365 386.179,126.829 386.075,126.829 386.176 M139.220 390.129 C 139.702 390.222,140.493 390.222,140.976 390.129 C 141.459 390.036,141.063 389.960,140.098 389.960 C 139.132 389.960,138.737 390.036,139.220 390.129 " stroke="none" fill="#565656" fill-rule="evenodd"></path><path id="path4" d="M327.158 190.439 C 327.138 193.216,327.157 193.281,327.527 191.705 C 327.776 190.643,327.784 189.589,327.548 188.778 C 327.234 187.701,327.176 187.948,327.158 190.439 M249.483 372.293 C 249.483 373.473,249.556 373.956,249.645 373.366 C 249.735 372.776,249.735 371.810,249.645 371.220 C 249.556 370.629,249.483 371.112,249.483 372.293 " stroke="none" fill="#747474" fill-rule="evenodd"></path></g></svg>